HIERARCHY
ROOT Hips
{
	OFFSET 0.0000 0.0000 0.0000
	CHANNELS 6 Xposition Yposition Zposition Zrotation Xrotation Yrotation
	JOINT Ab
	{
		OFFSET -0.0000 8.0846 -0.0000
		CHANNELS 3 Zrotation Xrotation Yrotation
		JOINT Chest
		{
			OFFSET -0.0000 25.0068 -0.0000
			CHANNELS 3 Zrotation Xrotation Yrotation
			JOINT Neck
			{
				OFFSET -0.0000 25.0068 0.0000
				CHANNELS 3 Zrotation Xrotation Yrotation
				JOINT Head
				{
					OFFSET -0.0000 10.7556 0.0000
					CHANNELS 3 Zrotation Xrotation Yrotation
					End Site
					{
						OFFSET -0.0000 16.6222 0.0000
					}
				}
			}
			JOINT LeftCollar
			{
				OFFSET -0.0000 25.0068 0.0000
				CHANNELS 3 Zrotation Xrotation Yrotation
				JOINT LeftShoulder
				{
					OFFSET 19.5556 -0.0000 0.0000
					CHANNELS 3 Zrotation Xrotation Yrotation
					JOINT LeftElbow
					{
						OFFSET 27.1828 0.0000 0.0000
						CHANNELS 3 Zrotation Xrotation Yrotation
						JOINT LeftWrist
						{
							OFFSET 23.3157 0.0000 0.0000
							CHANNELS 3 Zrotation Xrotation Yrotation
							End Site
							{
								OFFSET 0.0000 -14.6667 0.0000
							}
						}
					}
				}
			}
			JOINT RightCollar
			{
				OFFSET -0.0000 25.0068 0.0000
				CHANNELS 3 Zrotation Xrotation Yrotation
				JOINT RightShoulder
				{
					OFFSET -19.5556 0.0000 0.0000
					CHANNELS 3 Zrotation Xrotation Yrotation
					JOINT RightElbow
					{
						OFFSET -27.1828 0.0000 0.0000
						CHANNELS 3 Zrotation Xrotation Yrotation
						JOINT RightWrist
						{
							OFFSET -23.3157 0.0000 0.0000
							CHANNELS 3 Zrotation Xrotation Yrotation
							End Site
							{
								OFFSET -0.0000 -14.6667 0.0000
							}
						}
					}
				}
			}
		}
	}
	JOINT LeftHip
	{
		OFFSET 11.7333 0.0000 0.0000
		CHANNELS 3 Zrotation Xrotation Yrotation
		JOINT LeftKnee
		{
			OFFSET -0.0000 -40.8688 0.0000
			CHANNELS 3 Zrotation Xrotation Yrotation
			JOINT LeftAnkle
			{
				OFFSET -0.0000 -44.4337 0.0000
				CHANNELS 3 Zrotation Xrotation Yrotation
				End Site
				{
					OFFSET -0.0000 -4.8889 16.6222
				}
			}
		}
	}
	JOINT RightHip
	{
		OFFSET -11.7333 0.0000 0.0000
		CHANNELS 3 Zrotation Xrotation Yrotation
		JOINT RightKnee
		{
			OFFSET -0.0000 -40.8688 0.0000
			CHANNELS 3 Zrotation Xrotation Yrotation
			JOINT RightAnkle
			{
				OFFSET -0.0000 -44.4337 0.0000
				CHANNELS 3 Zrotation Xrotation Yrotation
				End Site
				{
					OFFSET -0.0000 -4.8889 16.6222
				}
			}
		}
	}
}
MOTION
Frames: 24
Frame Time: 0.010000
0.0906 87.4361 145.4673 0.7934 352.4286 176.9910 3.0334 9.1544 358.6831 1.2128 6.7053 358.8586 7.3720 333.2790 5.1120 352.8018 2.1294 3.4577 341.7904 356.7999 21.3313 324.6237 56.9115 348.3707 34.8460 345.3478 315.4113 89.0418 350.0006 6.4887 20.1722 358.2046 349.6731 55.6286 48.6876 12.5430 329.8989 348.0514 43.7613 274.8163 345.8254 23.2082 3.2683 345.2316 358.5798 338.6885 61.5248 15.5366 356.6153 344.1499 19.9700 4.1630 335.5702 4.3722 358.2776 37.6217 10.5153 352.1388 335.9899 335.0807 
0.2888 87.7325 144.5501 0.6711 352.1556 176.7021 2.9382 9.2101 359.1235 0.7162 6.3183 359.3340 6.4646 333.6384 4.4259 353.5811 1.9308 2.9851 342.4529 356.7716 22.5040 326.9252 58.6941 347.1096 36.1778 344.3680 315.1772 88.5270 350.1831 7.5151 19.9218 358.2189 349.6530 54.8661 49.5218 13.9897 330.1884 347.7260 45.6758 274.7537 345.7843 22.9028 3.5406 342.5817 358.3197 334.3670 63.4270 18.3780 357.0085 344.3012 20.7884 4.1911 336.5050 4.2431 358.0450 36.4275 10.8832 352.2464 335.9182 335.1536 
0.5054 88.0016 143.6622 0.5912 351.7995 176.6115 2.8891 9.1977 359.4783 0.2325 5.8441 359.7115 5.6395 334.3315 3.7602 354.3210 1.4182 2.5106 343.2423 356.8083 23.5885 328.9117 60.5586 345.8811 37.7069 343.4691 315.4396 88.1723 350.2837 8.8821 19.6882 358.2351 349.7214 54.2559 50.2789 15.1704 330.3492 347.2359 47.7251 275.0961 345.9234 22.3621 3.8365 339.8102 358.1944 330.4575 65.2550 21.5557 356.2069 343.5668 20.1959 4.1994 337.3264 3.9537 357.8783 35.2801 11.2973 352.1384 335.9931 335.0500 
0.6740 88.1682 142.5883 0.4433 352.0829 176.4758 2.8528 9.5229 359.7932 359.6107 5.7887 0.0616 4.8667 334.9030 3.1401 355.0450 0.9198 2.0672 344.0712 356.8389 24.9422 331.8407 62.9923 343.4258 39.8428 342.5903 316.3928 88.4705 350.6958 10.9902 19.4833 358.2499 349.6344 52.5929 51.5632 17.4654 330.3554 346.6764 49.1631 274.8586 345.7983 22.1968 3.9524 338.0108 357.9480 326.5057 66.2651 25.1643 356.0723 342.9538 19.8271 3.9891 338.9593 3.5127 357.7763 33.9806 11.8293 352.3926 335.7670 335.0941 
0.8602 88.3347 141.6988 0.3517 351.7164 176.7078 2.8663 9.3528 359.9611 359.0877 5.6757 0.2492 4.2919 335.2872 2.5626 355.4437 0.5832 1.6213 344.9031 356.8731 26.0052 333.9564 64.4480 341.8669 41.6974 342.0595 317.1974 88.3771 350.6692 12.5980 19.2126 358.2640 349.4396 50.4680 53.0369 20.2050 330.0889 346.0075 50.3511 274.8844 345.5707 21.5148 4.0682 335.1398 357.4150 322.2303 67.2583 29.2434 356.6784 342.6081 19.9866 3.8307 339.7579 2.7472 357.6008 32.9100 12.4537 352.5976 335.4571 334.7730 
1.0565 88.4397 140.7863 0.3107 351.6059 176.8269 2.8777 9.4707 0.1713 358.4592 5.4954 0.4924 4.1558 335.9172 2.2095 355.7001 0.0164 1.3072 345.7509 356.9248 27.1463 335.8199 65.5234 340.6282 43.4141 341.6293 317.9520 88.3743 350.9498 13.9039 18.9622 358.2861 349.4902 48.3649 54.6888 22.8843 329.3354 345.0739 51.2906 275.3555 345.6523 20.7910 4.3178 332.6202 357.5482 319.2610 68.2226 32.1989 357.1247 342.1786 20.0417 3.7702 340.8063 2.2024 357.5084 31.8292 12.8982 352.6562 335.3260 334.5929 
1.2686 88.4808 139.7830 0.3675 351.9571 176.7536 2.8564 9.9667 0.4950 357.8607 5.5097 0.8586 4.2649 336.4845 1.9899 355.8334 359.3659 1.0504 346.5459 356.9724 28.3365 337.7474 66.4467 339.3295 45.1896 341.1798 318.5923 88.3862 351.5548 15.3610 18.6647 358.3079 349.5120 45.6015 56.2876 26.2822 328.4979 344.2364 52.0202 275.0228 345.5969 20.0956 4.7371 330.7337 357.7084 316.5636 68.7391 34.6436 357.8262 342.0163 20.4878 3.8590 342.3526 1.9720 357.4521 30.8575 13.3032 352.7009 335.1593 334.5013 
1.4707 88.4737 138.7996 0.4489 352.3070 176.8086 2.8032 10.4799 0.7868 357.4523 5.5730 1.1796 4.1946 336.9073 1.6883 356.0131 358.8606 0.7596 347.1781 356.9825 29.3005 339.7086 67.4103 338.0954 47.0083 340.7785 319.2760 88.4175 352.0483 16.8695 18.2364 358.3567 349.4995 42.6578 57.6911 29.8219 327.4228 343.3234 52.5305 274.8604 345.6012 19.1528 5.1032 328.8055 357.8919 314.6793 69.0524 36.5696 357.8708 341.4614 20.4387 3.9245 343.8466 1.7258 357.5086 29.9415 13.5703 352.7470 335.0346 334.3716 
1.6804 88.4178 137.8582 0.5278 352.5298 176.9000 2.6306 10.9337 1.0912 357.3099 5.5347 1.4832 3.9950 337.4190 1.3756 356.1631 358.3436 0.5067 347.6561 356.9682 30.1009 341.2264 68.3757 337.3351 48.7632 340.3958 319.8151 88.7062 352.7930 18.5094 17.7205 358.4143 349.5522 39.6484 58.8429 33.2588 326.2103 342.3905 52.9562 275.0589 345.8178 17.9304 5.4724 326.7468 358.1637 313.6126 69.1300 37.9388 356.4867 340.3165 19.7820 4.0113 345.1036 1.4928 357.5640 29.1947 13.6123 352.7786 334.9110 334.4252 
1.9047 88.2960 136.9354 0.6010 352.5942 176.9998 2.3525 11.2032 1.4184 357.3275 5.5442 1.7886 4.0539 338.0449 1.1757 355.9597 357.6190 0.2937 348.0510 356.9689 30.4755 339.8510 68.0609 339.4521 49.4730 340.2334 319.1513 89.3775 353.8850 19.4312 17.2564 358.4571 349.5213 36.2353 59.4250 36.9906 325.3899 341.7967 53.7313 274.4667 346.3563 16.5594 5.8742 324.5659 358.4982 313.4507 69.1372 38.2217 355.5565 339.5403 19.3768 4.1251 346.0772 1.2070 357.5963 28.6239 13.4363 352.8557 334.7063 334.7181 
2.0892 88.1055 136.0264 0.6392 352.6537 177.4778 2.1833 11.4052 1.5371 357.3843 5.8222 1.8905 3.9118 338.2969 0.8261 355.7046 357.1652 359.9535 348.1710 356.8602 30.9041 340.6275 68.3130 339.8819 50.5444 339.7225 319.2984 88.6832 353.9207 19.9054 16.7401 358.4843 349.2268 32.6647 59.4438 40.8713 324.9004 341.3021 54.7886 274.2223 346.5972 15.2084 5.8850 322.2740 358.2725 313.6702 69.0355 38.7266 355.6100 339.1044 18.6559 4.0497 346.9881 0.3761 357.6319 28.2254 13.7772 352.6749 334.5285 334.6293 
2.2580 87.8270 134.9279 0.7192 353.4188 177.4822 2.0996 12.1248 1.8012 357.0492 6.2610 2.1949 4.3427 338.8282 0.8189 355.3875 356.4568 359.8588 348.5641 356.8880 32.0979 344.1140 69.9766 337.2353 52.5468 339.3520 321.5998 88.2298 353.3740 21.0248 16.3288 358.5273 349.4775 29.7994 59.4239 44.0365 324.5158 340.7675 55.8672 273.5326 346.8752 13.9861 6.1949 321.0984 358.8316 315.0877 68.6257 36.9024 357.6257 339.2817 19.9240 4.0945 348.7137 0.1328 357.7101 27.7791 13.9699 352.3745 334.4162 334.4629 
2.4776 87.5719 133.8893 0.9914 354.0581 177.4260 2.1629 12.8529 2.0222 356.8226 6.7183 2.4527 4.2331 339.0053 0.6897 355.5559 355.9839 359.7482 348.8187 356.8642 32.6241 343.6099 70.1879 338.4370 53.8141 339.3876 322.1272 88.5015 353.8427 22.4136 16.0566 358.5524 349.5417 26.1669 59.1788 47.8173 323.9062 339.9914 56.7249 274.1946 346.2073 13.6144 6.8847 319.9618 359.3083 316.4913 67.7152 34.9340 358.7785 339.0884 20.8002 4.4454 350.1808 0.0801 357.6767 27.6429 15.2768 351.3818 334.5252 333.1534 
2.6713 87.2754 132.9976 1.1475 354.0544 177.7161 2.3059 13.0776 1.9701 356.5765 6.9697 2.4439 3.9604 339.4595 0.4575 355.7909 355.2575 359.5655 348.8541 356.7839 32.7216 341.0547 69.7005 342.2004 54.6332 339.2325 321.6760 88.7738 354.6778 23.3164 15.8678 358.6129 349.9726 24.1151 58.6803 49.6507 323.5095 339.2819 58.1454 274.7949 345.8714 13.2277 7.1439 318.0453 359.3961 318.3797 66.7614 32.7025 0.2914 339.1074 21.8445 4.6366 350.7666 359.6660 357.6409 27.6397 14.7883 351.7048 334.1427 334.0299 
2.8719 86.9578 132.0285 1.4632 354.1107 177.9851 2.4907 13.2182 1.9825 356.5734 7.3735 2.4942 3.4910 340.0115 0.2587 356.1876 354.3897 359.4614 348.7675 356.6310 33.7002 343.6351 70.9577 340.3778 55.9957 339.1659 323.2199 88.6959 354.4957 24.2788 15.6583 358.6739 350.4243 21.5213 58.0829 52.0197 323.3168 338.6922 59.4134 274.6823 345.7679 12.5405 7.5630 316.3893 359.6064 320.9490 65.5667 29.9860 1.4040 339.7002 22.2503 5.0015 351.4908 359.3567 357.6405 27.6204 14.4448 351.6364 333.7512 334.4589 
3.0405 86.6214 131.0113 1.7071 354.2538 178.0017 2.5644 13.3697 2.1359 356.5000 7.8800 2.6850 3.1720 340.5800 0.1807 356.5780 353.4266 359.4531 348.7229 356.5125 34.4034 344.5120 71.4088 339.8394 56.7692 339.4034 324.0415 88.9710 354.7193 25.4164 15.5615 358.7275 350.8532 18.7623 57.3895 54.6005 323.1091 338.1370 60.4171 274.8569 345.6649 11.9395 8.0595 315.1517 0.0881 324.1228 64.0202 26.5606 2.2835 340.7482 22.5199 5.2731 352.3173 359.2669 357.7402 27.6549 14.5696 351.8058 333.0857 334.3466 
3.1558 86.2450 129.9354 1.8108 354.5279 177.7631 2.6472 13.6944 2.3013 356.1706 8.2272 2.9024 2.7815 341.2960 0.1066 357.0059 352.4648 359.4657 348.6818 356.4649 34.3833 340.7339 70.2711 343.9539 56.3936 339.7367 323.2950 89.5493 355.4059 25.6526 15.6988 358.7646 351.3114 16.1209 56.6947 56.8963 322.9754 337.6951 61.2699 274.9808 345.6689 11.5585 8.5446 314.3545 0.8349 327.4317 62.0827 23.1966 2.8073 341.4604 22.7680 5.3389 353.2878 359.2612 357.8684 27.7525 14.9327 351.7780 332.5499 334.0965 
3.2537 85.8504 128.7491 1.9450 354.9087 177.4920 2.7836 13.8394 2.4427 355.8704 8.9674 3.1134 1.9675 341.7161 359.8879 357.7239 351.8669 359.4254 348.6449 356.4667 34.2640 337.7684 69.4982 346.5754 56.1292 339.7872 322.5432 90.3155 355.7949 26.1667 15.8049 358.8043 351.7331 13.6880 55.8809 59.1138 322.9520 337.3688 62.0433 274.8590 345.8191 11.3355 9.0076 313.9335 1.5702 330.2703 59.7930 20.9210 2.9656 341.4752 22.7785 5.3844 354.5384 359.2182 358.0202 27.7010 15.2204 351.0705 332.2992 333.7865 
3.3892 85.4665 127.4925 2.2237 355.1811 177.3262 3.0301 13.7878 2.5710 355.6714 9.7007 3.3131 1.0433 342.0967 359.6598 358.4556 351.4608 359.3985 348.6154 356.5110 33.6654 332.7837 67.3928 350.7621 54.7318 339.9608 320.6406 91.4357 355.9944 25.6970 16.0112 358.8375 352.1178 11.4292 55.0683 61.1051 323.0947 337.2592 62.6259 274.5918 345.8223 11.0213 9.5551 313.6297 2.2842 332.7266 57.4407 19.3202 2.9722 341.8223 22.7429 5.5752 355.8712 359.0890 358.2022 27.3751 15.3598 350.6282 332.0447 333.6242 
3.5043 85.1019 126.2397 2.4875 355.4081 176.9145 3.1362 13.8551 2.8782 355.5128 10.1521 3.6692 0.2280 342.3831 359.4912 358.9520 351.2987 359.3916 348.3449 356.3980 33.5724 330.9722 66.9649 352.4552 53.8248 339.8503 320.2357 91.6582 355.7137 24.5961 16.2271 358.8814 352.5985 9.8606 54.4263 62.4549 323.2980 337.2347 62.9593 274.7176 345.6499 10.8656 10.2747 313.5796 3.2884 335.4674 55.0749 16.6477 1.2232 342.1657 21.9692 5.6449 357.2245 359.1272 358.5469 26.9129 15.4495 349.9967 332.1611 333.4445 
3.5610 84.7405 124.9660 2.5873 355.3652 176.6576 3.4042 13.7318 2.8690 355.1634 10.2674 3.7189 358.9676 342.8735 359.1942 359.7716 351.2117 359.3514 348.5996 356.6480 32.7992 326.6538 67.2290 355.5604 53.3942 339.9573 321.0571 91.4515 355.0992 23.0413 16.5224 358.9224 353.0514 8.7065 54.1068 63.3968 323.6060 337.4510 62.9983 274.7195 345.4388 10.8337 10.5068 313.4934 3.7661 337.7493 52.4364 14.8137 0.7577 342.5963 21.7288 5.6124 358.0201 358.7057 358.5041 26.9525 15.8024 349.9719 331.7008 333.5912 
3.6012 84.3900 123.6241 2.6382 355.2632 176.2401 3.3774 13.4283 3.0684 355.0258 10.4333 3.9264 358.0164 342.9918 359.1343 0.2743 351.4345 359.4693 348.2044 356.5175 31.9493 322.5656 65.3161 359.1950 51.4492 340.6296 319.5868 92.8113 355.6156 22.1357 16.8598 358.9776 353.7433 8.2676 53.9300 63.6241 324.0915 337.9103 62.7830 274.6055 344.8965 11.0543 10.7652 313.7039 4.2873 339.9250 49.5916 13.1302 359.9519 342.8721 21.4981 5.5374 358.8545 358.4094 358.3919 26.8992 16.3173 349.8204 331.4812 333.8254 
3.6614 84.0578 122.1662 2.7668 355.3541 175.6621 3.2927 13.1207 3.3809 354.9888 10.9697 4.2476 357.1380 342.3079 359.0974 0.5542 352.1390 359.5957 347.7604 356.3883 31.3873 319.6256 64.5863 1.1168 50.2131 341.0749 320.0723 92.5498 354.8882 20.2339 17.1839 359.0339 354.1962 8.0142 53.6901 63.7877 324.7174 338.5683 62.3242 274.3858 344.5094 11.4746 11.1554 314.4577 4.9039 341.9243 46.8608 11.5123 358.9118 343.0383 22.4746 5.5787 359.9893 358.4285 358.2684 26.8003 16.6587 349.5129 331.1148 333.8159 
3.6835 83.7649 120.6861 2.8120 355.4264 175.0879 3.2049 12.9786 3.6054 354.8041 10.9833 4.4746 356.6418 342.1346 359.1675 0.5799 352.4448 359.7514 347.2619 356.3399 30.0115 315.6515 61.3878 4.1725 47.6507 341.9830 318.4622 93.3068 355.3261 18.2011 17.6132 359.0709 354.6137 8.5927 53.8523 63.0325 325.4215 339.3135 61.6616 274.1187 344.4143 12.1580 11.2513 315.3932 5.2002 343.7019 44.1088 10.2996 359.4887 343.2442 21.3404 5.4954 1.0917 358.4804 358.0671 26.8061 18.1325 349.5030 331.1171 333.0308 
